<svg width="258" height="85" viewBox="0 0 258 85" fill="none" xmlns="http://www.w3.org/2000/svg">
<path d="M4 18L29.6 3L55.2 18L80.8 3L106.4 18L132 3L157.6 18L183.2 3L208.8 18L234.4 3L260 18" stroke="#6847D4" stroke-width="4"/>
<path d="M2 82L27.6 67L53.2 82L78.8 67L104.4 82L130 67L155.6 82L181.2 67L206.8 82L232.4 67L258 82" stroke="#6847D4" stroke-width="4"/>
<path d="M7 50L32.6 35L58.2 50L83.8 35L109.4 50L135 35L160.6 50L186.2 35L211.8 50L237.4 35L263 50" stroke="#EDEFFB" stroke-width="4"/>
</svg>
