<svg width="1440" height="264" viewBox="0 0 1440 264" fill="none" xmlns="http://www.w3.org/2000/svg">
<mask id="mask0_17_6091" style="mask-type:alpha" maskUnits="userSpaceOnUse" x="0" y="0" width="1440" height="264">
<rect width="1440" height="264" fill="#D9D9D9"/>
</mask>
<g mask="url(#mask0_17_6091)">
<path d="M703.912 80.3736C707.459 50.3439 734.679 28.8757 764.709 32.423C794.738 35.9702 816.207 63.1898 812.659 93.2195L803.747 168.668L695 155.822L703.912 80.3736Z" fill="#6847D4"/>
<path d="M702.767 90.0681L783.514 166.278L695 155.822L702.767 90.0681Z" fill="#EDEFFB"/>
<circle cx="743.584" cy="149.478" r="4" transform="rotate(6.73692 743.584 149.478)" stroke="black" stroke-width="2"/>
<path d="M743.196 152.761C743.196 152.761 736.335 172.327 730.471 204.856C724.607 237.385 726.134 267.244 726.134 267.244" stroke="black" stroke-width="2"/>
<mask id="mask1_17_6091" style="mask-type:alpha" maskUnits="userSpaceOnUse" x="303" y="31" width="123" height="123">
<circle cx="364.012" cy="92.0722" r="61" transform="rotate(48.8515 364.012 92.0722)" fill="#3F3D56"/>
</mask>
<g mask="url(#mask1_17_6091)">
<rect x="409.945" y="51.9333" width="61" height="123" transform="rotate(48.8515 409.945 51.9333)" fill="#3F3D56"/>
</g>
<mask id="mask2_17_6091" style="mask-type:alpha" maskUnits="userSpaceOnUse" x="283" y="48" width="123" height="123">
<circle cx="61" cy="61" r="61" transform="matrix(-0.658013 -0.753006 -0.753006 0.658013 430.334 115.507)" fill="#6847D4"/>
</mask>
<g mask="url(#mask2_17_6091)">
<rect width="61" height="123" transform="matrix(-0.658013 -0.753006 -0.753006 0.658013 390.195 69.5737)" fill="#E63946"/>
</g>
<circle cx="353.584" cy="146.086" r="4" transform="rotate(6.73692 353.584 146.086)" stroke="black" stroke-width="2"/>
<path d="M353.5 150.608C353.5 150.608 354.089 177.74 353.5 195.108C352.583 222.141 347.5 264.108 347.5 264.108" stroke="black" stroke-width="2"/>
<rect x="492" y="36.1526" width="81" height="128" transform="rotate(-5.34417 492 36.1526)" fill="#3F3D56"/>
<rect x="506.935" y="34.7555" width="19" height="128" transform="rotate(-5.34417 506.935 34.7555)" fill="#EDEFFB"/>
<path d="M162.131 31.8401C132.188 34.909 110.403 61.6701 113.472 91.6127C116.54 121.555 143.302 143.341 173.244 140.272L204.58 137.061L193.467 28.6285L162.131 31.8401Z" fill="#EDEFFB"/>
<rect width="30" height="109" transform="matrix(-0.994789 0.101956 0.101956 0.994789 212.368 26.6914)" fill="#6847D4"/>
<circle cx="546.584" cy="146.086" r="4" transform="rotate(6.73692 546.584 146.086)" stroke="black" stroke-width="2"/>
<path d="M546.499 150.608C546.499 150.608 547.089 177.74 546.499 195.108C545.582 222.141 544.5 267.608 544.5 267.608" stroke="black" stroke-width="2"/>
<mask id="mask3_17_6091" style="mask-type:alpha" maskUnits="userSpaceOnUse" x="909" y="33" width="133" height="133">
<circle cx="65.9206" cy="65.9206" r="65.9206" transform="matrix(-0.962689 -0.270608 -0.270608 0.962689 1056.68 54.3077)" fill="#3F3D56"/>
</mask>
<g mask="url(#mask3_17_6091)">
<rect width="65.9206" height="132.922" transform="matrix(-0.962689 -0.270608 -0.270608 0.962689 993.215 36.4691)" fill="#3F3D56"/>
</g>
<mask id="mask4_17_6091" style="mask-type:alpha" maskUnits="userSpaceOnUse" x="957" y="37" width="85" height="131">
<mask id="mask5_17_6091" style="mask-type:alpha" maskUnits="userSpaceOnUse" x="909" y="35" width="133" height="133">
<circle cx="975.3" cy="101.3" r="65.9206" transform="rotate(15.7005 975.3 101.3)" fill="#EDEFFB"/>
</mask>
<g mask="url(#mask5_17_6091)">
<rect x="993.139" y="37.8386" width="65.9206" height="132.922" transform="rotate(15.7005 993.139 37.8386)" fill="#EDEFFB"/>
</g>
</mask>
<g mask="url(#mask4_17_6091)">
<rect width="65.9206" height="65.9206" transform="matrix(-0.96269 -0.270608 -0.270608 0.96269 1038.76 119.138)" fill="#EDEFFB"/>
</g>
<circle cx="1021.59" cy="87.0344" r="25" transform="rotate(15.7005 1021.59 87.0344)" fill="#E63946"/>
<path d="M970.578 145.807C970.581 148.141 972.405 149.961 974.585 149.941C976.764 149.922 978.585 148.069 978.583 145.735C978.58 143.4 976.755 141.58 974.576 141.6C972.397 141.619 970.576 143.472 970.578 145.807Z" stroke="black" stroke-width="2"/>
<path d="M974.585 149.356C974.585 149.356 979.127 170.213 981.172 204.266C983.217 238.319 978.227 268.801 978.227 268.801" stroke="black" stroke-width="2"/>
<rect x="1109.05" y="87.4138" width="107" height="107" transform="rotate(-47.125 1109.05 87.4138)" fill="#3F3D56"/>
<rect x="1160.87" y="135.525" width="36.2893" height="36.2893" transform="rotate(-47.125 1160.87 135.525)" fill="#6847D4"/>
<path d="M1191.52 136.961C1191.26 139.355 1189.22 140.979 1187.08 140.711C1184.93 140.444 1183.31 138.365 1183.58 135.971C1183.85 133.577 1185.88 131.954 1188.03 132.221C1190.17 132.489 1191.79 134.567 1191.52 136.961Z" stroke="black" stroke-width="2"/>
<path d="M1187.65 141.608C1187.65 141.608 1188.43 170.131 1187.65 188.39C1186.44 216.809 1185 264.608 1185 264.608" stroke="black" stroke-width="2"/>
<circle cx="186.653" cy="130.974" r="4" transform="rotate(-5.69139 186.653 130.974)" stroke="black" stroke-width="2"/>
<path d="M188.296 133.769C188.296 133.769 188.234 157.696 193.398 195.707C198.562 233.719 209.869 266.407 209.869 266.407" stroke="black" stroke-width="2"/>
</g>
</svg>
