<svg width="262" height="85" viewBox="0 0 262 85" fill="none" xmlns="http://www.w3.org/2000/svg">
<path d="M1 18L26.6 3L52.2 18L77.8 3L103.4 18L129 3L154.6 18L180.2 3L205.8 18L231.4 3L257 18" stroke="#EDEFFB" stroke-width="4"/>
<path d="M-1 82L24.6 67L50.2 82L75.8 67L101.4 82L127 67L152.6 82L178.2 67L203.8 82L229.4 67L255 82" stroke="#EDEFFB" stroke-width="4"/>
<path d="M4 50L29.6 35L55.2 50L80.8 35L106.4 50L132 35L157.6 50L183.2 35L208.8 50L234.4 35L260 50" stroke="#6847D4" stroke-width="4"/>
</svg>
