<svg width="36" height="36" viewBox="0 0 36 36" fill="none" xmlns="http://www.w3.org/2000/svg">
<path d="M5 6V30H8.66035C9.47111 30 10.3097 29.948 11.1761 29.8441C12.0425 29.7402 12.848 29.5137 13.5925 29.1647C14.337 28.813 14.9398 28.2708 15.4008 27.5381C15.8618 26.808 16.0923 25.8155 16.0923 24.5605V23.3935C16.0923 22.1199 15.7916 21.0834 15.1902 20.2841C14.5914 19.4821 13.9237 18.9452 13.1871 18.6734V18.5615C14.2681 18.1299 15.0881 17.5117 15.6472 16.7071C16.2063 15.9024 16.4858 14.7873 16.4858 13.3619V12.1389C16.4858 10.8386 16.2778 9.78351 15.8618 8.97352C15.4485 8.16086 14.8828 7.54005 14.1648 7.11107C13.4468 6.67943 12.6267 6.38635 11.7047 6.23181C10.7826 6.07727 9.81423 6 8.79945 6H5ZM8.61663 19.7286H9.24458C10.2143 19.7286 10.988 19.9697 11.5656 20.452C12.1432 20.9342 12.432 21.7376 12.432 22.8619V23.8451C12.432 24.9589 12.1988 25.8208 11.7325 26.431C11.2662 27.0385 10.4369 27.3422 9.24458 27.3422H8.61663V19.7286ZM8.61663 8.65379H9.58239C10.5495 8.65379 11.3205 8.89625 11.8954 9.38118C12.4677 9.86345 12.7539 10.6654 12.7539 11.7872V13.6576C12.7539 14.782 12.5234 15.6466 12.0624 16.2515C11.6013 16.8536 10.7747 17.1547 9.58239 17.1547H8.61663V8.65379ZM19.5142 6V30H23.1785C23.9867 30 24.8239 29.948 25.6903 29.8441C26.5567 29.7402 27.3635 29.5137 28.1107 29.1647C28.8552 28.813 29.458 28.2708 29.919 27.5381C30.38 26.808 30.6105 25.8155 30.6105 24.5605V23.3935C30.6105 22.1199 30.3098 21.0834 29.7083 20.2841C29.1069 19.4821 28.4392 18.9452 27.7053 18.6734V18.5615C28.7837 18.1299 29.6024 17.5117 30.1614 16.7071C30.7205 15.9024 31 14.7873 31 13.3619V12.1389C31 10.8386 30.7933 9.78351 30.38 8.97352C29.964 8.16086 29.3983 7.54005 28.683 7.11107C27.9649 6.67943 27.1449 6.38635 26.2229 6.23181C25.3008 6.07727 24.3324 6 23.3176 6H19.5142ZM23.1348 19.7286H23.7628C24.7325 19.7286 25.5062 19.9697 26.0838 20.452C26.6614 20.9342 26.9502 21.7376 26.9502 22.8619V23.8451C26.9502 24.9589 26.717 25.8208 26.2507 26.431C25.7844 27.0385 24.9551 27.3422 23.7628 27.3422H23.1348V19.7286ZM23.1348 8.65379H24.1006C25.0677 8.65379 25.8374 8.89625 26.4097 9.38118C26.9846 9.86345 27.2721 10.6654 27.2721 11.7872V13.6576C27.2721 14.782 27.0416 15.6466 26.5806 16.2515C26.1195 16.8536 25.2929 17.1547 24.1006 17.1547H23.1348V8.65379Z" fill="white"/>
</svg>
